
<svg xmlns="http://www.w3.org/2000/svg" version="1.1" xmlns:xlink="http://www.w3.org/1999/xlink" preserveAspectRatio="none" x="0px" y="0px" width="336px" height="280px" viewBox="0 0 336 280">
<defs>
<linearGradient id="Gradient_1" gradientUnits="userSpaceOnUse" x1="69.46249999999999" y1="4.699999999999989" x2="230.53750000000002" y2="215.5" spreadMethod="pad">
<stop  offset="0%" stop-color="#0000FF"/>

<stop  offset="81.96078431372548%" stop-color="#EED76A"/>
</linearGradient>

<image id="bitmaps_vapormax_ultra_thumbnail" x="0" y="0" width="80" height="48" xlink:href="./images/bitmaps_vapormax_ultra_thumbnail.png"/>

<image id="bitmaps_racer_thumbnail" x="0" y="0" width="80" height="36" xlink:href="./images/bitmaps_racer_thumbnail.png"/>

<image id="bitmaps_racer" x="0" y="0" width="357" height="160" xlink:href="./images/bitmaps_racer.png"/>

<g id="background_0_Layer0_0_FILL">
<path fill="url(#Gradient_1)" stroke="none" d="
M 336 0.95
Q 336 0 335.05 0
L 0.95 0
Q 0 0 0 0.95
L 0 278.95
Q 0 279.9 0.95 279.9
L 335.05 279.9
Q 336 279.9 336 278.95
L 336 0.95 Z"/>
</g>

<g id="buttons_ultra_0_Layer0_0_FILL">
<path fill="#FFFFFF" stroke="none" d="
M 90 65
L 90 0 0 0 0 65 90 65 Z"/>
</g>

<g id="buttons_racer_0_Layer0_0_FILL">
<path fill="#FFFFFF" stroke="none" d="
M 90 65
L 90 0 0 0 0 65 90 65 Z"/>
</g>

<g id="Shop_now_0_Layer0_0_FILL">
<path fill="#FFFFFF" stroke="none" d="
M 103.8 4.15
Q 99.65 0 93.75 0
L 14.25 0
Q 8.35 0 4.15 4.15 0 8.35 0 14.25
L 0 18.75
Q 0 24.6 4.15 28.8 8.35 33 14.25 33
L 93.75 33
Q 99.65 33 103.8 28.8 108 24.6 108 18.75
L 108 14.25
Q 108 8.35 103.8 4.15 Z"/>
</g>

<path id="buttons_ultra_0_Layer0_0_1_STROKES" stroke="#FFC602" stroke-width="1" stroke-linejoin="round" stroke-linecap="round" fill="none" d="
M 0 0
L 90 0 90 65 0 65 0 0 Z"/>

<path id="buttons_racer_0_Layer0_0_1_STROKES" stroke="#FFC602" stroke-width="1" stroke-linejoin="round" stroke-linecap="round" fill="none" d="
M 0 0
L 90 0 90 65 0 65 0 0 Z"/>
</defs>

<g transform="matrix( 1, 0, 0, 1, -0.05,0) ">
<g transform="matrix( 1, 0, 0, 1, 0,0) ">
<use xlink:href="#background_0_Layer0_0_FILL"/>
</g>
</g>

<g transform="matrix( 1, 0, 0, 1, 6.95,0) ">
<g transform="matrix( 1, 0, 0, 1, 2,62.85) ">
<clipPath id="Mask_Mask_1">
<rect x="-2" y="-2" width="110" height="74.75" fill="#FFFFFF" stroke="none"/>
</clipPath>

<text clip-path="url(#Mask_Mask_1)" writing-mode="lr"><tspan x="0" y="24.2" baseline-shift="0%" font-family="Impact" font-size="24" fill="#FFFFFF" xml:space="preserve"> 50% OFF</tspan><tspan baseline-shift="0%" font-family="Impact" font-size="17" fill="#FFFFFF" xml:space="preserve"></tspan><tspan x="0" y="46.4" baseline-shift="0%" font-family="Impact" font-size="17" fill="#FFFFFF" xml:space="preserve">choose</tspan><tspan x="0" y="67.15" baseline-shift="0%" font-family="Impact" font-size="17" fill="#FFFFFF" xml:space="preserve">your model</tspan></text>
</g>

<g transform="matrix( 1, 0, 0, 1, 2,2) ">
<clipPath id="Mask_Mask_2">
<rect x="-2" y="-2" width="259.95" height="66.2" fill="#FFFFFF" stroke="none"/>
</clipPath>

<text clip-path="url(#Mask_Mask_2)" writing-mode="lr"><tspan x="0" y="51.45" baseline-shift="0%" font-family="Impact" font-size="51" fill="#FFFFFF" xml:space="preserve">SHOES</tspan></text>
</g>
</g>

<g id="ultra_btn" transform="matrix( 1, 0, 0, 1, 7,140) ">
<g transform="matrix( 1, 0, 0, 1, 0,0) ">
<use xlink:href="#buttons_ultra_0_Layer0_0_FILL"/>

<use xlink:href="#buttons_ultra_0_Layer0_0_1_STROKES"/>
</g>

<g transform="matrix( 1, 0, 0, 1, 5,9) ">
<use xlink:href="#bitmaps_vapormax_ultra_thumbnail"/>
</g>
</g>

<g id="racer_btn" transform="matrix( 1, 0, 0, 1, 7,206.95) ">
<g transform="matrix( 1, 0, 0, 1, 0,0) ">
<use xlink:href="#buttons_racer_0_Layer0_0_FILL"/>

<use xlink:href="#buttons_racer_0_Layer0_0_1_STROKES"/>
</g>

<g transform="matrix( 1, 0, 0, 1, 5,15) ">
<use xlink:href="#bitmaps_racer_thumbnail"/>
</g>
</g>

<g id="shopnow_btn" transform="matrix( 1, 0, 0, 1, 114,238) ">
<g transform="matrix( 1, 0, 0, 1, 0,0) ">
<use xlink:href="#Shop_now_0_Layer0_0_FILL"/>
</g>

<g transform="matrix( 0.7498779296875, 0, 0, 0.7498779296875, 0.05,3.1) ">
<clipPath id="Mask_Mask_3">
<rect x="12.6" y="-2" width="118.8" height="39.35" fill="#FFFFFF" stroke="none"/>
</clipPath>

<text clip-path="url(#Mask_Mask_3)" writing-mode="lr"><tspan x="14.7" y="29.25" baseline-shift="0%" font-family="Impact" font-size="29" fill="#333333" xml:space="preserve">Shop now</tspan></text>
</g>
</g>

<g transform="matrix( 1, 0, 0, 1, 66.5,-52) ">
<g transform="matrix( 0.913543701171875, -0.40673828125, 0.40673828125, 0.913543701171875, 0,145.2) ">
<use xlink:href="#bitmaps_racer"/>
</g>

<g transform="matrix( 1, 0, 0, 1, 20.8,146.95) ">
<clipPath id="Mask_Mask_4">
<rect x="-2" y="-2" width="113" height="19.85" fill="#FFFFFF" stroke="none"/>
</clipPath>

<text clip-path="url(#Mask_Mask_4)" writing-mode="lr"><tspan x="38.85" y="13.1" baseline-shift="0%" font-family="Impact" font-size="13" fill="#010101" fill-opacity="0.4196078431372549" xml:space="preserve">Racer</tspan></text>
</g>
</g>
</svg>
